<svg xmlns="http://www.w3.org/2000/svg" data-name="Layer 5" viewBox="0 0 24 30" x="0px" y="0px"><title>Cryptocurrency Market</title><path d="M18,.75H10.8286a2.2343,2.2343,0,0,0-1.5913.6592L4.4092,6.2373A2.2343,2.2343,0,0,0,3.75,7.8286V21A2.2525,2.2525,0,0,0,6,23.25h4a.25.25,0,0,0,0-.5H6A1.7522,1.7522,0,0,1,4.25,21V13.25H8.1714a1.7387,1.7387,0,0,1,1.2378.5127l.8281.8281a2.2343,2.2343,0,0,0,1.5913.6592h2.972A1.2336,1.2336,0,0,0,16,16.25a1.25,1.25,0,0,0,0-2.5,1.2335,1.2335,0,0,0-1.1994,1h-2.972a1.7387,1.7387,0,0,1-1.2378-.5127l-.8281-.8281A2.2343,2.2343,0,0,0,8.1714,12.75H4.25V9.25H14.8006A1.2336,1.2336,0,0,0,16,10.25a1.25,1.25,0,0,0,0-2.5,1.2335,1.2335,0,0,0-1.1994,1H4.25V7.8286A1.7434,1.7434,0,0,1,4.3546,7.25H7a.25.25,0,0,0,0-.5H4.6318a1.7642,1.7642,0,0,1,.1309-.1592L9.5908,1.7627A1.7642,1.7642,0,0,1,9.75,1.6318V5A1.7522,1.7522,0,0,1,8,6.75a.25.25,0,0,0,0,.5,2.2451,2.2451,0,0,0,2.2247-2H14a1.25,1.25,0,0,0,0-2.5H10.25V1.3546a1.7434,1.7434,0,0,1,.5786-.1046H18A1.7522,1.7522,0,0,1,19.75,3V9a.25.25,0,0,0,.5,0V3A2.2525,2.2525,0,0,0,18,.75Zm-2,13.5a.75.75,0,1,1-.75.75A.7508.7508,0,0,1,16,14.25Zm0-6a.75.75,0,1,1-.75.75A.7508.7508,0,0,1,16,8.25Zm-2-5a.75.75,0,0,1,0,1.5H10.25V3.25Z"/><path d="M20,9.75a.25.25,0,0,0-.25.25V21A1.7522,1.7522,0,0,1,18,22.75H11a.25.25,0,0,0,0,.5h7A2.2525,2.2525,0,0,0,20.25,21V10A.25.25,0,0,0,20,9.75Z"/><path d="M8.75,21a.25.25,0,0,0,.25.25h8a.25.25,0,0,0,0-.5H12.9736A1.2229,1.2229,0,0,0,13.25,20a1.25,1.25,0,0,0-2.5,0,1.2229,1.2229,0,0,0,.2764.75H9A.25.25,0,0,0,8.75,21Zm2.5-1a.75.75,0,1,1,.75.75A.7508.7508,0,0,1,11.25,20Z"/><text x="0" y="39" fill="#000000" font-size="5px" font-weight="bold" font-family="'Helvetica Neue', Helvetica, Arial-Unicode, Arial, Sans-serif">Created by elastic1studio</text><text x="0" y="44" fill="#000000" font-size="5px" font-weight="bold" font-family="'Helvetica Neue', Helvetica, Arial-Unicode, Arial, Sans-serif">from the Noun Project</text></svg>